<?xml version="1.0" standalone="no"?><!DOCTYPE svg PUBLIC "-//W3C//DTD SVG 1.1//EN" "http://www.w3.org/Graphics/SVG/1.1/DTD/svg11.dtd"><svg t="1678795124070" class="icon" viewBox="0 0 1024 1024" version="1.1" xmlns="http://www.w3.org/2000/svg" p-id="1687" xmlns:xlink="http://www.w3.org/1999/xlink" width="260" height="260"><path d="M370.133333 600.490667A157.269333 157.269333 0 0 0 247.466667 537.6a14.506667 14.506667 0 0 0-4.266667-0.426667 158.08 158.08 0 0 0 0 316.16l0.170667-0.128h469.802666l0.213334 0.128a225.408 225.408 0 0 0 35.413333-448A262.272 262.272 0 1 0 247.466667 537.6" fill="#FFB531" p-id="1688"></path><path d="M731.264 749.568a21.333333 21.333333 0 0 1 0-42.666667 74.325333 74.325333 0 1 0 0-148.608 21.333333 21.333333 0 0 1 0-42.666666 116.992 116.992 0 1 1 0 233.941333z" fill="#030835" p-id="1689"></path></svg>